# Blender v2.80 (sub 75) OBJ File: 'GT_Recycled_Block.blend'
# www.blender.org
mtllib GT_Recycled_Block.mtl
o GT_Recycled_Block
v -0.493325 0.475001 1.450020
v -0.475024 0.493302 1.450020
v -0.475024 0.493302 -0.449976
v -0.493325 0.475001 -0.449976
v -0.475024 0.487501 1.471680
v -0.493325 0.471651 1.462520
v -0.450024 0.500001 1.450020
v -0.450024 0.493302 1.475020
v 0.449976 0.493302 1.475020
v 0.449976 0.500001 1.450020
v 0.449976 0.475001 1.493330
v -0.450024 0.475001 1.493330
v 0.449976 0.450001 1.500020
v -0.450024 0.450001 1.500020
v 0.449977 -0.449999 1.500020
v -0.450024 -0.449999 1.500020
v 0.449977 -0.475000 1.493330
v -0.450024 -0.475000 1.493330
v 0.449977 -0.493301 1.475020
v -0.450024 -0.493301 1.475020
v 0.449977 -0.500000 1.450020
v -0.450024 -0.500000 1.450020
v -0.450024 -0.500000 -0.449976
v 0.449976 -0.500000 -0.449976
v -0.475024 -0.493301 1.450020
v -0.475024 -0.493301 -0.449976
v -0.475024 -0.487500 1.471680
v -0.493324 -0.475000 1.450020
v -0.493324 -0.471650 1.462520
v -0.493325 -0.475000 -0.449976
v -0.500023 -0.449999 1.450020
v -0.500024 -0.449999 -0.449977
v -0.493324 -0.462500 1.471680
v -0.493324 -0.449999 1.475020
v -0.500023 0.450001 1.450020
v -0.493325 0.450001 1.475020
v -0.500024 0.450001 -0.449977
v -0.493325 0.462501 1.471680
v -0.475024 0.471651 1.487520
v -0.475024 0.450001 1.493330
v -0.475024 -0.449999 1.493330
v -0.475024 -0.471650 1.487520
v -0.493325 0.471651 -0.462477
v -0.475024 0.487501 -0.471628
v -0.450024 0.493302 -0.474977
v -0.450024 0.500001 -0.449976
v 0.449976 0.493302 -0.474977
v 0.449976 0.500001 -0.449976
v -0.450024 0.475001 -0.493278
v 0.449976 0.475001 -0.493278
v -0.450024 0.450001 -0.499977
v 0.449976 0.450001 -0.499977
v -0.450024 -0.449999 -0.499977
v 0.449976 -0.449999 -0.499977
v -0.450024 -0.475000 -0.493278
v 0.449976 -0.475000 -0.493278
v -0.450024 -0.493301 -0.474977
v 0.449976 -0.493301 -0.474977
v 0.474976 -0.493301 -0.449976
v 0.474976 -0.487500 -0.471628
v 0.474977 -0.493301 1.450020
v 0.474977 -0.487500 1.471680
v 0.474977 -0.471650 1.487520
v 0.474976 -0.449999 1.493330
v 0.493277 -0.449999 1.475020
v 0.493279 -0.462500 1.471680
v 0.499976 -0.449999 1.450020
v 0.493278 -0.471650 1.462520
v 0.493278 -0.475000 1.450020
v 0.493278 -0.475000 -0.449976
v 0.493278 -0.471650 -0.462477
v 0.499976 -0.449999 -0.449977
v 0.499976 0.450001 1.450020
v 0.499976 0.450001 -0.449977
v 0.493277 0.450001 1.475020
v 0.474976 0.450001 1.493330
v 0.474976 0.471651 1.487520
v 0.493278 0.462501 1.471680
v 0.493278 0.471651 1.462520
v 0.493278 0.475001 1.450020
v 0.474976 0.487501 1.471680
v 0.474976 0.493302 1.450020
v 0.474976 0.493302 -0.449976
v 0.493278 0.475001 -0.449976
v 0.493278 0.471651 -0.462477
v 0.474976 0.487501 -0.471628
v 0.474976 0.471651 -0.487477
v 0.474976 0.450001 -0.493278
v 0.493277 0.450001 -0.474977
v 0.493278 0.462501 -0.471628
v 0.493277 -0.449999 -0.474977
v 0.493278 -0.462500 -0.471628
v 0.474976 -0.471650 -0.487477
v 0.474976 -0.449999 -0.493278
v -0.475024 -0.487500 -0.471628
v -0.475024 -0.471650 -0.487477
v -0.475024 -0.449999 -0.493278
v -0.493325 -0.449999 -0.474977
v -0.493325 -0.462500 -0.471628
v -0.493325 -0.471650 -0.462477
v -0.493325 0.450001 -0.474977
v -0.475024 0.450001 -0.493278
v -0.475024 0.471651 -0.487477
v -0.493325 0.462501 -0.471628
v -0.500023 -0.132023 1.132050
v -0.600022 0.000001 1.000020
v -0.500023 -0.132022 0.868002
v -0.500023 0.132023 1.132050
v -0.500023 0.132023 0.868002
v -0.000023 0.599999 0.000023
v -0.132046 0.500000 -0.131999
v -0.132046 0.500000 0.132046
v 0.131999 0.500000 -0.131999
v 0.131999 0.500000 0.132046
v -0.000025 -0.000000 -0.599975
v 0.131998 -0.132023 -0.499977
v -0.132047 -0.132023 -0.499977
v 0.131998 0.132022 -0.499977
v -0.132047 0.132023 -0.499977
v 0.131999 -0.499999 -0.131999
v -0.000023 -0.599998 0.000023
v -0.132046 -0.499999 -0.131999
v 0.131999 -0.499999 0.132046
v -0.132046 -0.499999 0.132046
v 0.499976 -0.132023 -0.131999
v 0.599974 0.000001 0.000023
v 0.499976 -0.132022 0.132046
v 0.499976 0.132023 -0.131999
v 0.499976 0.132023 0.132046
v -0.600022 0.000001 0.000023
v -0.500023 -0.132023 -0.131999
v -0.500023 -0.132022 0.132046
v -0.500023 0.132023 -0.131999
v -0.500023 0.132023 0.132046
v -0.132046 0.500000 1.132050
v -0.000023 0.599999 1.000020
v -0.132046 0.500000 0.868002
v 0.131999 0.500000 1.132050
v 0.131999 0.500000 0.868002
v 0.131998 -0.132023 1.500020
v -0.000024 -0.000000 1.600020
v -0.132047 -0.132023 1.500020
v 0.131998 0.132022 1.500020
v -0.132047 0.132023 1.500020
v -0.000023 -0.599998 1.000020
v 0.131999 -0.499999 1.132050
v -0.132046 -0.499999 1.132050
v 0.131999 -0.499999 0.868002
v -0.132046 -0.499999 0.868002
v 0.599974 0.000001 1.000020
v 0.499976 -0.132023 1.132050
v 0.499976 -0.132022 0.868002
v 0.499976 0.132023 1.132050
v 0.499976 0.132023 0.868002
vt 0.489078 0.541514
vt 0.159765 0.544686
vt 0.489078 0.544686
vt 0.491245 0.545266
vt 0.492832 0.542519
vt 0.489078 0.544686
vt 0.493411 0.549019
vt 0.489078 0.549019
vt 0.401187 0.927666
vt 0.405521 0.771675
vt 0.405521 0.927666
vt 0.408694 0.771675
vt 0.408694 0.927666
vt 0.246426 0.544686
vt 0.402417 0.549019
vt 0.246426 0.549019
vt 0.402417 0.705010
vt 0.246426 0.705010
vt 0.402417 0.709343
vt 0.246426 0.709343
vt 0.408694 0.927666
vt 0.405521 0.771675
vt 0.405521 0.927666
vt 0.401187 0.771675
vt 0.401187 0.927666
vt 0.071874 0.771675
vt 0.071874 0.927666
vt 0.489078 0.549019
vt 0.159765 0.544686
vt 0.159765 0.549019
vt 0.493411 0.549019
vt 0.489078 0.544686
vt 0.491245 0.708762
vt 0.489078 0.712515
vt 0.492832 0.711510
vt 0.489078 0.709343
vt 0.159765 0.712515
vt 0.489078 0.705010
vt 0.159765 0.709343
vt 0.492832 0.707176
vt 0.493411 0.705010
vt 0.493411 0.549019
vt 0.489078 0.549019
vt 0.159764 0.705010
vt 0.159764 0.549019
vt 0.492832 0.546852
vt 0.406750 0.542519
vt 0.402417 0.544686
vt 0.402417 0.541514
vt 0.406750 0.549019
vt 0.406750 0.545266
vt 0.409922 0.546852
vt 0.409922 0.549019
vt 0.496585 0.549019
vt 0.496585 0.705010
vt 0.409922 0.707176
vt 0.406750 0.705010
vt 0.409922 0.705010
vt 0.406750 0.708762
vt 0.406750 0.711510
vt 0.402417 0.712515
vt 0.157598 0.545266
vt 0.159765 0.541514
vt 0.156012 0.542519
vt 0.155431 0.549019
vt 0.159765 0.544686
vt 0.159765 0.549019
vt 0.067541 0.771675
vt 0.071874 0.927666
vt 0.067541 0.927666
vt 0.402417 0.541514
vt 0.246426 0.544686
vt 0.402417 0.544686
vt 0.246426 0.549019
vt 0.402417 0.549019
vt 0.246426 0.705010
vt 0.402417 0.705010
vt 0.246426 0.709343
vt 0.402417 0.709343
vt 0.067541 0.771675
vt 0.064369 0.927666
vt 0.067541 0.927666
vt 0.155431 0.705010
vt 0.159765 0.709343
vt 0.159765 0.705010
vt 0.489078 0.705010
vt 0.489078 0.709343
vt 0.493411 0.705010
vt 0.242093 0.711510
vt 0.246426 0.712515
vt 0.242093 0.708762
vt 0.242093 0.705010
vt 0.238921 0.707176
vt 0.238921 0.705010
vt 0.489078 0.705010
vt 0.493411 0.705010
vt 0.492832 0.707176
vt 0.491245 0.708762
vt 0.489078 0.709343
vt 0.489078 0.712515
vt 0.492832 0.711510
vt 0.159765 0.712515
vt 0.489078 0.712515
vt 0.157598 0.712515
vt 0.156012 0.709343
vt 0.157598 0.708762
vt 0.159764 0.705010
vt 0.159765 0.709343
vt 0.159764 0.549019
vt 0.489078 0.549019
vt 0.493411 0.549019
vt 0.496585 0.705010
vt 0.242093 0.549019
vt 0.242093 0.545266
vt 0.238921 0.546852
vt 0.238921 0.549019
vt 0.492832 0.546852
vt 0.491245 0.545266
vt 0.489078 0.544686
vt 0.489078 0.541514
vt 0.492832 0.542519
vt 0.493411 0.705010
vt 0.489078 0.709343
vt 0.489078 0.705010
vt 0.159765 0.705010
vt 0.489078 0.712515
vt 0.159765 0.709343
vt 0.159765 0.544686
vt 0.157598 0.545266
vt 0.157598 0.712515
vt 0.156012 0.709343
vt 0.155431 0.705010
vt 0.242093 0.542519
vt 0.246426 0.541514
vt 0.242093 0.545266
vt 0.242093 0.549019
vt 0.238921 0.549019
vt 0.238921 0.546852
vt 0.155431 0.549019
vt 0.156012 0.546852
vt 0.156012 0.542519
vt 0.155431 0.705010
vt 0.156012 0.707176
vt 0.156012 0.711510
vt 0.242093 0.708762
vt 0.238921 0.705010
vt 0.238921 0.707176
vt 0.152259 0.549019
vt 0.152259 0.705010
vt 0.242093 0.705010
vt 0.242093 0.711510
vt 0.246426 0.712515
vt 0.401187 0.771675
vt 0.071874 0.771675
vt 0.242093 0.542519
vt 0.246426 0.541514
vt 0.155431 0.549019
vt 0.406750 0.711510
vt 0.402417 0.712515
vt 0.406750 0.708762
vt 0.406750 0.705010
vt 0.409922 0.707176
vt 0.409922 0.705010
vt 0.155431 0.705010
vt 0.156012 0.707176
vt 0.157598 0.708762
vt 0.156012 0.711510
vt 0.152259 0.549019
vt 0.152259 0.705010
vt 0.406750 0.549019
vt 0.406750 0.545266
vt 0.409922 0.546852
vt 0.409922 0.549019
vt 0.156012 0.546852
vt 0.155431 0.549019
vt 0.406750 0.542519
vt 0.059386 0.372195
vt 0.031092 0.343902
vt 0.002800 0.372195
vt 0.059386 0.315609
vt 0.002800 0.315609
vt 0.031093 0.343902
vt 0.002800 0.315609
vt 0.059386 0.315609
vt 0.002800 0.372195
vt 0.059386 0.372195
vt 0.031093 0.343902
vt 0.002800 0.372195
vt 0.059386 0.372194
vt 0.002800 0.315609
vt 0.059386 0.315609
vt 0.002800 0.372195
vt 0.031093 0.343902
vt 0.002800 0.315609
vt 0.059386 0.372195
vt 0.059386 0.315609
vt 0.002800 0.372195
vt 0.031093 0.343902
vt 0.059386 0.372195
vt 0.002800 0.315609
vt 0.059386 0.315609
vt 0.031093 0.343902
vt 0.002800 0.372195
vt 0.059386 0.372195
vt 0.002800 0.315609
vt 0.059386 0.315609
vt 0.059386 0.315609
vt 0.031092 0.343902
vt 0.002800 0.315609
vt 0.059386 0.372195
vt 0.002800 0.372195
vt 0.002800 0.372195
vt 0.031093 0.343902
vt 0.059386 0.372194
vt 0.002800 0.315609
vt 0.059386 0.315609
vt 0.031092 0.343902
vt 0.059386 0.372195
vt 0.059386 0.315609
vt 0.002800 0.372195
vt 0.002800 0.315609
vt 0.031092 0.343902
vt 0.059386 0.372195
vt 0.002800 0.372195
vt 0.059386 0.315609
vt 0.002800 0.315609
vt 0.492832 0.544686
vt 0.408694 0.771675
vt 0.492832 0.544686
vt 0.495578 0.545266
vt 0.495578 0.708762
vt 0.156012 0.544686
vt 0.064369 0.771675
vt 0.492832 0.709343
vt 0.495578 0.708762
vt 0.496585 0.549019
vt 0.492832 0.709343
vt 0.159765 0.712515
vt 0.153265 0.545266
vt 0.153265 0.708762
vt 0.495578 0.545266
vt 0.156012 0.544686
vt 0.153265 0.708762
vt 0.153265 0.545266
vn -0.4883 0.8653 0.1129
vn -0.8549 0.5140 -0.0698
vn -0.8549 0.5140 0.0698
vn -0.8475 0.4598 0.2652
vn -0.4823 0.7586 0.4380
vn -0.1278 0.8590 0.4958
vn -0.1282 0.9834 0.1282
vn 0.1282 0.9834 0.1282
vn 0.1278 0.8590 0.4958
vn -0.1278 0.4959 0.8589
vn 0.1278 0.4959 0.8589
vn -0.1280 0.1280 0.9835
vn 0.1280 0.1280 0.9835
vn -0.1281 -0.1281 0.9835
vn 0.1281 -0.1281 0.9835
vn -0.1279 -0.4958 0.8590
vn 0.1279 -0.4958 0.8590
vn -0.1278 -0.8590 0.4958
vn 0.1278 -0.8590 0.4958
vn -0.1282 -0.9834 0.1282
vn 0.1282 -0.9834 0.1282
vn -0.1282 -0.9834 -0.1281
vn 0.1282 -0.9834 -0.1282
vn -0.4883 -0.8653 -0.1129
vn -0.4883 -0.8653 0.1129
vn -0.8475 -0.4598 0.2652
vn -0.4823 -0.7586 0.4380
vn -0.8549 -0.5140 0.0698
vn -0.9881 -0.1087 0.1087
vn -0.8549 -0.5140 -0.0698
vn -0.8474 -0.2654 0.4598
vn -0.8550 -0.0696 0.5139
vn -0.8550 0.0696 0.5139
vn -0.9881 0.1087 0.1087
vn -0.9881 -0.1087 -0.1087
vn -0.9881 0.1087 -0.1087
vn -0.8474 0.2654 0.4598
vn -0.4883 0.1129 0.8653
vn -0.4824 0.4380 0.7586
vn -0.4882 -0.1130 0.8654
vn -0.4823 -0.4379 0.7587
vn -0.8474 0.4598 -0.2654
vn -0.4883 0.8653 -0.1129
vn -0.4823 0.7586 -0.4380
vn -0.1278 0.8589 -0.4959
vn -0.1282 0.9834 -0.1281
vn 0.1282 0.9834 -0.1281
vn 0.1278 0.8589 -0.4959
vn 0.1278 0.4959 -0.8589
vn -0.1278 0.4959 -0.8589
vn 0.1281 0.1281 -0.9834
vn -0.1281 0.1282 -0.9834
vn 0.1282 -0.1281 -0.9834
vn -0.1282 -0.1281 -0.9834
vn 0.1278 -0.4959 -0.8589
vn -0.1278 -0.4959 -0.8589
vn -0.1278 -0.8589 -0.4959
vn 0.1278 -0.8589 -0.4959
vn 0.4883 -0.8653 -0.1129
vn 0.4883 -0.8653 0.1129
vn 0.4823 -0.7586 0.4380
vn 0.4823 -0.4379 0.7587
vn 0.4882 -0.1130 0.8654
vn 0.8474 -0.2654 0.4598
vn 0.8550 -0.0696 0.5139
vn 0.9881 -0.1087 0.1087
vn 0.8475 -0.4598 0.2652
vn 0.8549 -0.5140 0.0698
vn 0.8549 -0.5140 -0.0698
vn 0.8474 -0.4598 -0.2654
vn 0.4823 -0.7586 -0.4380
vn 0.9881 -0.1087 -0.1087
vn 0.9881 0.1087 -0.1087
vn 0.9881 0.1087 0.1087
vn 0.8550 0.0696 0.5139
vn 0.4883 0.1129 0.8653
vn 0.4824 0.4380 0.7586
vn 0.8474 0.2654 0.4598
vn 0.8475 0.4598 0.2652
vn 0.8549 0.5140 0.0698
vn 0.4883 0.8653 0.1129
vn 0.4823 0.7586 0.4380
vn 0.4883 0.8653 -0.1129
vn 0.8549 0.5140 -0.0698
vn 0.8474 0.4598 -0.2654
vn 0.4823 0.7586 -0.4380
vn 0.4823 0.4380 -0.7586
vn 0.4883 0.1129 -0.8653
vn 0.8549 0.0698 -0.5140
vn 0.8474 0.2654 -0.4598
vn 0.8549 -0.0698 -0.5140
vn 0.8474 -0.2654 -0.4598
vn 0.4823 -0.4380 -0.7586
vn 0.4883 -0.1129 -0.8653
vn -0.4823 -0.7586 -0.4380
vn -0.4823 -0.4380 -0.7586
vn -0.4883 -0.1129 -0.8653
vn -0.8474 -0.2654 -0.4598
vn -0.8549 -0.0698 -0.5140
vn -0.8474 -0.4598 -0.2654
vn -0.4883 0.1129 -0.8653
vn -0.4823 0.4380 -0.7586
vn -0.8474 0.2655 -0.4598
vn -0.8549 0.0698 -0.5140
vn -0.7971 -0.6038 -0.0000
vn -0.7972 0.0000 0.6038
vn -0.7971 0.6038 0.0000
vn -0.7971 0.0000 -0.6038
vn -0.6038 0.7971 0.0000
vn -0.0000 0.7971 -0.6038
vn 0.6038 0.7971 -0.0000
vn 0.0000 0.7971 0.6038
vn -0.0000 -0.6038 -0.7971
vn 0.6038 0.0000 -0.7971
vn 0.0000 0.6038 -0.7971
vn -0.6038 0.0000 -0.7971
vn -0.0000 -0.7971 -0.6038
vn 0.6038 -0.7971 0.0000
vn 0.0000 -0.7971 0.6038
vn -0.6038 -0.7971 0.0000
vn 0.7971 -0.6038 0.0000
vn 0.7971 -0.0000 -0.6038
vn 0.7971 0.6038 -0.0000
vn 0.7971 0.0000 0.6038
vn -0.7971 0.0000 0.6038
vn 0.0000 0.7972 0.6038
vn 0.0000 -0.6038 0.7971
vn 0.6038 0.0000 0.7971
vn 0.0000 0.6038 0.7971
vn -0.6038 0.0000 0.7971
vn 0.0000 -0.7972 0.6038
vn 0.7972 0.0000 0.6038
usemtl Formica_Beige
s 1
f 2/1/1 4/2/2 1/3/3
f 2/1/1 6/4/4 5/5/5
f 2/6/1 8/7/6 7/8/7
f 10/9/8 8/10/6 9/11/9
f 9/11/9 12/12/10 11/13/11
f 11/14/11 14/15/12 13/16/13
f 13/16/13 16/17/14 15/18/15
f 15/18/15 18/19/16 17/20/17
f 17/21/17 20/22/18 19/23/19
f 19/23/19 22/24/20 21/25/21
f 21/25/21 23/26/22 24/27/23
f 22/28/20 26/29/24 23/30/22
f 20/31/18 25/32/25 22/28/20
f 29/33/26 25/34/25 27/35/27
f 28/36/28 26/37/24 25/34/25
f 31/38/29 30/39/30 28/36/28
f 29/33/26 31/38/29 28/36/28
f 29/33/26 33/40/31 31/38/29
f 33/40/31 34/41/32 31/38/29
f 36/42/33 31/38/29 34/41/32
f 35/43/34 32/44/35 31/38/29
f 35/43/34 4/2/2 37/45/36
f 1/3/3 35/43/34 6/4/4
f 35/43/34 38/46/37 6/4/4
f 38/46/37 5/5/5 6/4/4
f 5/47/5 12/48/10 8/49/6
f 40/50/38 12/48/10 39/51/39
f 40/50/38 38/52/37 36/53/33
f 35/43/34 36/42/33 38/46/37
f 40/54/38 34/41/32 41/55/40
f 33/56/31 41/57/40 34/58/32
f 42/59/41 16/17/14 41/57/40
f 16/17/14 40/50/38 41/57/40
f 18/19/16 27/60/27 20/61/18
f 27/35/27 33/40/31 29/33/26
f 43/62/42 37/45/36 4/2/2
f 43/62/42 3/63/43 44/64/44
f 45/65/45 3/66/43 46/67/46
f 45/68/45 48/69/47 47/70/48
f 45/71/45 50/72/49 49/73/50
f 49/73/50 52/74/51 51/75/52
f 51/75/52 54/76/53 53/77/54
f 53/77/54 56/78/55 55/79/56
f 57/80/57 56/81/55 58/82/58
f 57/80/57 24/27/23 23/26/22
f 58/83/58 59/84/59 24/85/23
f 21/86/21 59/84/59 61/87/60
f 61/87/60 19/88/19 21/86/21
f 62/89/61 17/20/17 19/90/19
f 15/18/15 63/91/62 64/92/63
f 64/92/63 66/93/64 65/94/65
f 67/95/66 65/96/65 66/97/64
f 67/95/66 66/97/64 68/98/67
f 69/99/68 67/95/66 68/98/67
f 61/100/60 68/98/67 62/101/61
f 66/97/64 62/101/61 68/98/67
f 61/87/60 70/102/69 69/103/68
f 71/104/70 59/84/59 60/105/71
f 71/106/70 72/107/72 70/108/69
f 67/95/66 70/108/69 72/107/72
f 67/95/66 74/109/73 73/110/74
f 67/95/66 75/111/75 65/96/65
f 75/111/75 64/112/63 65/96/65
f 76/113/76 15/18/15 64/92/63
f 11/14/11 76/113/76 77/114/77
f 78/115/78 76/113/76 75/116/75
f 78/117/78 75/111/75 73/110/74
f 79/118/79 78/117/78 73/110/74
f 79/118/79 73/110/74 80/119/80
f 79/118/79 82/120/81 81/121/82
f 9/122/9 82/123/81 10/124/8
f 82/123/81 48/125/47 10/124/8
f 80/126/80 83/127/83 82/123/81
f 73/110/74 84/128/84 80/119/80
f 84/128/84 74/109/73 85/129/85
f 83/127/83 85/130/85 86/131/86
f 83/127/83 47/132/48 48/125/47
f 86/133/86 50/72/49 47/134/48
f 52/74/51 87/135/87 88/136/88
f 89/137/89 87/135/87 90/138/90
f 74/109/73 89/139/89 90/140/90
f 74/109/73 90/140/90 85/129/85
f 90/140/90 86/141/86 85/129/85
f 91/142/91 74/109/73 72/107/72
f 92/143/92 91/142/91 72/107/72
f 71/106/70 92/143/92 72/107/72
f 60/144/71 92/143/92 71/106/70
f 93/145/93 91/146/91 92/147/92
f 88/148/88 91/142/91 94/149/94
f 52/74/51 94/150/94 54/76/53
f 93/145/93 54/76/53 94/150/94
f 56/78/55 60/151/71 58/152/58
f 7/153/7 48/69/47 46/154/46
f 7/8/7 3/66/43 2/6/1
f 11/14/11 81/155/82 9/156/9
f 81/121/82 78/117/78 79/118/79
f 26/29/24 57/157/57 23/30/22
f 95/158/95 55/79/56 57/159/57
f 53/77/54 96/160/96 97/161/97
f 97/161/97 99/162/98 98/163/99
f 32/44/35 98/164/99 99/165/98
f 32/44/35 99/165/98 100/166/100
f 30/39/30 32/44/35 100/166/100
f 26/37/24 100/166/100 95/167/95
f 99/165/98 95/167/95 100/166/100
f 37/45/36 98/164/99 32/44/35
f 98/164/99 102/168/101 97/169/97
f 102/170/101 53/77/54 97/161/97
f 103/171/102 51/75/52 102/170/101
f 104/172/103 102/170/101 101/173/104
f 104/174/103 101/175/104 37/45/36
f 43/62/42 104/174/103 37/45/36
f 44/64/44 104/174/103 43/62/42
f 49/73/50 44/176/44 45/71/45
f 105/177/105 106/178/105 107/179/105
f 106/178/106 105/177/106 108/180/106
f 109/181/107 106/178/107 108/180/107
f 106/178/108 109/181/108 107/179/108
f 110/182/109 111/183/109 112/184/109
f 111/183/110 110/182/110 113/185/110
f 110/182/111 114/186/111 113/185/111
f 114/186/112 110/182/112 112/184/112
f 115/187/113 116/188/113 117/189/113
f 116/188/114 115/187/114 118/190/114
f 115/187/115 119/191/115 118/190/115
f 119/191/116 115/187/116 117/189/116
f 120/192/117 121/193/117 122/194/117
f 121/193/118 120/192/118 123/195/118
f 124/196/119 121/193/119 123/195/119
f 121/193/120 124/196/120 122/194/120
f 125/197/121 126/198/121 127/199/121
f 126/198/122 125/197/122 128/200/122
f 129/201/123 126/198/123 128/200/123
f 126/198/124 129/201/124 127/199/124
f 130/202/105 131/203/105 132/204/105
f 131/203/108 130/202/108 133/205/108
f 130/202/107 134/206/107 133/205/107
f 134/206/125 130/202/125 132/204/125
f 135/207/109 136/208/109 137/209/109
f 136/208/126 135/207/126 138/210/126
f 139/211/111 136/208/111 138/210/111
f 136/208/110 139/211/110 137/209/110
f 140/212/127 141/213/127 142/214/127
f 141/213/128 140/212/128 143/215/128
f 144/216/129 141/213/129 143/215/129
f 141/213/130 144/216/130 142/214/130
f 145/217/131 146/218/131 147/219/131
f 146/218/118 145/217/118 148/220/118
f 145/217/117 149/221/117 148/220/117
f 149/221/120 145/217/120 147/219/120
f 150/222/121 151/223/121 152/224/121
f 151/223/132 150/222/132 153/225/132
f 150/222/123 154/226/123 153/225/123
f 154/226/122 150/222/122 152/224/122
f 2/1/1 3/63/43 4/2/2
f 2/1/1 1/3/3 6/4/4
f 2/6/1 5/227/5 8/7/6
f 10/9/8 7/153/7 8/10/6
f 9/11/9 8/10/6 12/12/10
f 11/14/11 12/48/10 14/15/12
f 13/16/13 14/15/12 16/17/14
f 15/18/15 16/17/14 18/19/16
f 17/21/17 18/228/16 20/22/18
f 19/23/19 20/22/18 22/24/20
f 21/25/21 22/24/20 23/26/22
f 22/28/20 25/32/25 26/29/24
f 20/31/18 27/229/27 25/32/25
f 29/33/26 28/36/28 25/34/25
f 28/36/28 30/39/30 26/37/24
f 31/38/29 32/44/35 30/39/30
f 36/42/33 35/43/34 31/38/29
f 35/43/34 37/45/36 32/44/35
f 35/43/34 1/3/3 4/2/2
f 38/46/37 39/230/39 5/5/5
f 5/47/5 39/51/39 12/48/10
f 40/50/38 14/15/12 12/48/10
f 40/50/38 39/51/39 38/52/37
f 40/54/38 36/42/33 34/41/32
f 33/56/31 42/59/41 41/57/40
f 42/59/41 18/19/16 16/17/14
f 16/17/14 14/15/12 40/50/38
f 18/19/16 42/59/41 27/60/27
f 27/35/27 42/231/41 33/40/31
f 43/62/42 4/2/2 3/63/43
f 45/65/45 44/232/44 3/66/43
f 45/68/45 46/154/46 48/69/47
f 45/71/45 47/134/48 50/72/49
f 49/73/50 50/72/49 52/74/51
f 51/75/52 52/74/51 54/76/53
f 53/77/54 54/76/53 56/78/55
f 57/80/57 55/233/56 56/81/55
f 57/80/57 58/82/58 24/27/23
f 58/83/58 60/105/71 59/84/59
f 21/86/21 24/85/23 59/84/59
f 61/87/60 62/234/61 19/88/19
f 62/89/61 63/91/62 17/20/17
f 15/18/15 17/20/17 63/91/62
f 64/92/63 63/91/62 66/93/64
f 61/100/60 69/99/68 68/98/67
f 66/97/64 63/235/62 62/101/61
f 61/87/60 59/84/59 70/102/69
f 71/104/70 70/102/69 59/84/59
f 67/95/66 69/99/68 70/108/69
f 67/95/66 72/107/72 74/109/73
f 67/95/66 73/110/74 75/111/75
f 75/111/75 76/236/76 64/112/63
f 76/113/76 13/16/13 15/18/15
f 11/14/11 13/16/13 76/113/76
f 78/115/78 77/114/77 76/113/76
f 79/118/79 80/119/80 82/120/81
f 9/122/9 81/237/82 82/123/81
f 82/123/81 83/127/83 48/125/47
f 80/126/80 84/238/84 83/127/83
f 73/110/74 74/109/73 84/128/84
f 83/127/83 84/238/84 85/130/85
f 83/127/83 86/131/86 47/132/48
f 86/133/86 87/135/87 50/72/49
f 52/74/51 50/72/49 87/135/87
f 89/137/89 88/136/88 87/135/87
f 90/140/90 87/239/87 86/141/86
f 91/142/91 89/139/89 74/109/73
f 60/144/71 93/240/93 92/143/92
f 93/145/93 94/150/94 91/146/91
f 88/148/88 89/139/89 91/142/91
f 52/74/51 88/136/88 94/150/94
f 93/145/93 56/78/55 54/76/53
f 56/78/55 93/145/93 60/151/71
f 7/153/7 10/9/8 48/69/47
f 7/8/7 46/67/46 3/66/43
f 11/14/11 77/114/77 81/155/82
f 81/121/82 77/241/77 78/117/78
f 26/29/24 95/242/95 57/157/57
f 95/158/95 96/160/96 55/79/56
f 53/77/54 55/79/56 96/160/96
f 97/161/97 96/160/96 99/162/98
f 26/37/24 30/39/30 100/166/100
f 99/165/98 96/243/96 95/167/95
f 37/45/36 101/175/104 98/164/99
f 98/164/99 101/175/104 102/168/101
f 102/170/101 51/75/52 53/77/54
f 103/171/102 49/73/50 51/75/52
f 104/172/103 103/171/102 102/170/101
f 44/64/44 103/244/102 104/174/103
f 49/73/50 103/171/102 44/176/44
